<?xml version="1.0"?>
<svg width="512" height="512" xmlns="http://www.w3.org/2000/svg" xmlns:svg="http://www.w3.org/2000/svg" clip-rule="evenodd" fill-rule="evenodd" version="1.1">
 <g class="layer">
  <title>Layer 1</title>
  <g id="svg_1">
   <path d="m226.5,6.5c87.67,-0.17 175.33,0 263,0.5c8.17,1.5 13,6.33 14.5,14.5c0.67,20 0.67,40 0,60c-1.95,8.28 -7.12,13.12 -15.5,14.5c-88.7,0.99 -177.37,0.65 -266,-1c-5.49,-2.47 -8.99,-6.64 -10.5,-12.5c-0.67,-20.67 -0.67,-41.33 0,-62c2.12,-7.63 6.96,-12.29 14.5,-14zm167,25c13.29,0.3 20.96,6.97 23,20c-1.72,11.88 -8.55,18.55 -20.5,20c-18.03,-3.73 -23.69,-14.06 -17,-31c4.01,-4.55 8.85,-7.55 14.5,-9zm63,0c18.21,1.78 25.04,11.45 20.5,29c-10.97,13.5 -22.63,14.16 -35,2c-6.52,-15.63 -1.69,-25.96 14.5,-31zm-209,1c5.01,-0.17 10.01,0 15,0.5c3.51,3.05 3.84,6.38 1,10c-5.68,1.94 -11.35,1.94 -17,0c-3.99,-3.9 -3.65,-7.4 1,-10.5zm39,0c4.68,-0.17 9.35,0 14,0.5c3.6,1.33 4.77,3.83 3.5,7.5c-1.24,2.04 -3.07,3.21 -5.5,3.5c-4.43,0.79 -8.76,0.46 -13,-1c-4.18,-3.95 -3.84,-7.45 1,-10.5zm38,0c5.01,-0.17 10.01,0 15,0.5c5.75,4.7 5.08,8.37 -2,11c-4.74,0.73 -9.4,0.39 -14,-1c-2.79,-3.77 -2.45,-7.27 1,-10.5zm-78,26c5.34,-0.17 10.68,0 16,0.5c3.99,3.29 3.99,6.62 0,10c-5,0.67 -10,0.67 -15,0c-4.94,-3 -5.27,-6.5 -1,-10.5zm39,0c5.34,-0.17 10.68,0 16,0.5c4,3.33 4,6.67 0,10c-5.33,0.67 -10.67,0.67 -16,0c-3.94,-3.5 -3.94,-7 0,-10.5zm39,0c5.34,-0.17 10.68,0 16,0.5c4.07,3.74 3.73,7.08 -1,10c-5,0.67 -10,0.67 -15,0c-3.92,-3.54 -3.92,-7.04 0,-10.5z" fill="#7f0000" id="svg_2" opacity="0.96"/>
  </g>
  <g id="svg_3">
   <path d="m392.5,42.5c9.66,-0.84 13.49,3.49 11.5,13c-2.54,4.57 -6.37,6.07 -11.5,4.5c-7.9,-5.86 -7.9,-11.69 0,-17.5z" fill="#7f0000" id="svg_4" opacity="0.86"/>
  </g>
  <g id="svg_5">
   <path d="m455.5,42.5c9.66,-0.84 13.49,3.49 11.5,13c-4.94,6.15 -10.27,6.49 -16,1c-2.39,-5.98 -0.89,-10.65 4.5,-14z" fill="#7f0000" id="svg_6" opacity="0.87"/>
  </g>
  <g id="svg_7">
   <path d="m112.5,78.5c12.98,12.31 25.65,24.98 38,38c-12.32,12.82 -24.82,25.49 -37.5,38c-0.5,-6.66 -0.67,-13.32 -0.5,-20c-22.36,-2.59 -35.53,7.08 -39.5,29c-0.5,20.33 -0.67,40.66 -0.5,61c-11.33,0 -22.67,0 -34,0c-0.17,-22.67 0,-45.34 0.5,-68c5.17,-30.84 23.01,-49.67 53.5,-56.5c6.66,-0.5 13.33,-0.67 20,-0.5c0,-7 0,-14 0,-21z" fill="#7f0000" id="svg_8" opacity="0.96"/>
  </g>
  <g id="svg_9">
   <path d="m225.5,114.5c88.33,-0.17 176.67,0 265,0.5c7.61,1.95 12.11,6.78 13.5,14.5c0.95,21.05 0.62,42.05 -1,63c-2.17,4.83 -5.67,8.33 -10.5,10.5c-89.67,0.67 -179.33,0.67 -269,0c-6.23,-1.96 -10.06,-6.13 -11.5,-12.5c-0.67,-20.67 -0.67,-41.33 0,-62c2.02,-7.18 6.52,-11.85 13.5,-14zm167,25c15.33,0.16 23.16,7.83 23.5,23c-4.09,12.97 -12.93,18.14 -26.5,15.5c-13.44,-6.32 -16.94,-16.15 -10.5,-29.5c3.53,-4.67 8.03,-7.67 13.5,-9zm63,0c13.77,-0.23 21.77,6.44 24,20c-4.82,18.07 -15.82,23.24 -33,15.5c-10.96,-11.04 -10.62,-21.71 1,-32c2.66,-1.48 5.32,-2.65 8,-3.5zm-209,1c5.34,-0.17 10.68,0 16,0.5c4,3.33 4,6.67 0,10c-5.33,0.67 -10.67,0.67 -16,0c-3.9,-3.49 -3.9,-6.99 0,-10.5zm39,0c5.34,-0.17 10.68,0 16,0.5c4,3.33 4,6.67 0,10c-5.33,0.67 -10.67,0.67 -16,0c-3.94,-3.5 -3.94,-7 0,-10.5zm39,0c5.01,-0.17 10.01,0 15,0.5c4.83,2.84 5.16,6.17 1,10c-5.33,0.67 -10.67,0.67 -16,0c-3.95,-3.45 -3.95,-6.95 0,-10.5zm-75,25c4.75,-0.22 9.42,0.28 14,1.5c3.09,4.12 2.43,7.45 -2,10c-5.45,0.9 -10.78,0.56 -16,-1c-3.27,-5.24 -1.94,-8.74 4,-10.5zm39,0c4.84,-0.38 9.5,0.28 14,2c2.45,2.5 2.62,5.16 0.5,8c-2.93,1.54 -6.09,2.2 -9.5,2c-4,0.48 -7.5,-0.52 -10.5,-3c-1.2,-4.94 0.63,-7.94 5.5,-9zm39,0c4.44,-0.29 8.77,0.21 13,1.5c4.1,3.65 3.76,6.98 -1,10c-5,0.67 -10,0.67 -15,0c-2.79,-2.21 -3.62,-5.04 -2.5,-8.5c1.72,-1.37 3.55,-2.37 5.5,-3z" fill="#7f0000" id="svg_10" opacity="0.97"/>
  </g>
  <g id="svg_11">
   <path d="m392.5,150.5c9.66,-0.84 13.49,3.49 11.5,13c-3.44,4.96 -7.94,6.13 -13.5,3.5c-5.6,-6.33 -4.94,-11.83 2,-16.5z" fill="#7f0000" id="svg_12" opacity="0.88"/>
  </g>
  <g id="svg_13">
   <path d="m454.5,150.5c10.16,-1.34 14.33,2.99 12.5,13c-4.95,6.25 -10.28,6.59 -16,1c-2.58,-5.62 -1.41,-10.28 3.5,-14z" fill="#7f0000" id="svg_14" opacity="0.87"/>
  </g>
  <g id="svg_15">
   <path d="m252.5,218.5c16.01,-0.33 32.01,0 48,1c-2.02,8.61 -3.86,17.28 -5.5,26c-12.44,1.32 -24.94,1.32 -37.5,0c-1.79,-8.97 -3.46,-17.97 -5,-27z" fill="#7f0000" id="svg_16" opacity="0.94"/>
  </g>
  <g id="svg_17">
   <path d="m415.5,218.5c16.01,-0.33 32.01,0 48,1c-1.99,8.94 -3.66,17.94 -5,27c-12.67,0 -25.33,0 -38,0c-1.41,-9.38 -3.08,-18.71 -5,-28z" fill="#7f0000" id="svg_18" opacity="0.94"/>
  </g>
  <g id="svg_19">
   <path d="m48.5,291.5c76.39,-0.49 152.72,0.01 229,1.5c6.09,3.35 9.26,8.51 9.5,15.5c0.5,44.67 0.67,89.33 0.5,134c-84,0 -168,0 -252,0c-0.17,-46 0,-92 0.5,-138c2.35,-6.19 6.52,-10.52 12.5,-13zm9,10c11.34,-0.17 22.67,0 34,0.5c3.71,1.69 4.88,4.52 3.5,8.5c-0.9,1.2 -2.07,2.04 -3.5,2.5c-8.99,0.5 -17.99,0.67 -27,0.5c0.17,9.01 0,18.01 -0.5,27c-2.55,4.43 -5.88,5.09 -10,2c-1.62,-11.9 -1.96,-23.9 -1,-36c1.02,-2.19 2.52,-3.85 4.5,-5zm173,0c11.34,-0.17 22.67,0 34,0.5c1.43,0.46 2.6,1.3 3.5,2.5c0.67,12.67 0.67,25.33 0,38c-3.62,2.84 -6.95,2.51 -10,-1c-0.5,-9.33 -0.67,-18.66 -0.5,-28c-8.67,0.17 -17.34,0 -26,-0.5c-6.3,-3.35 -6.63,-7.18 -1,-11.5zm-127,59c5.34,-0.17 10.68,0 16,0.5c3.71,1.69 4.88,4.52 3.5,8.5c-0.9,1.2 -2.07,2.04 -3.5,2.5c-6.08,0.86 -12.08,0.53 -18,-1c-3.1,-4.34 -2.43,-7.84 2,-10.5zm50,0c5.34,-0.17 10.68,0 16,0.5c5.55,4.15 5.22,7.81 -1,11c-5,0.67 -10,0.67 -15,0c-3.71,-1.69 -4.88,-4.52 -3.5,-8.5c1.15,-1.14 2.31,-2.14 3.5,-3zm49,0c5.34,-0.17 10.68,0 16,0.5c6.23,3.5 6.23,7.17 0,11c-5,0.67 -10,0.67 -15,0c-6.31,-3.4 -6.65,-7.23 -1,-11.5zm-144,27c2.18,0.34 4.01,1.34 5.5,3c0.5,9.99 0.67,19.99 0.5,30c9.67,-0.17 19.34,0 29,0.5c3.87,3.25 3.87,6.58 0,10c-12.33,0.67 -24.67,0.67 -37,0c-0.83,-0.83 -1.67,-1.67 -2.5,-2.5c-0.67,-12.33 -0.67,-24.67 0,-37c1.25,-1.69 2.75,-3.03 4.5,-4zm205,0c2.58,0.35 4.41,1.69 5.5,4c0.9,12.71 0.56,25.38 -1,38c-0.5,0.5 -1,1 -1.5,1.5c-12.33,0.67 -24.67,0.67 -37,0c-4.07,-3.75 -3.73,-7.08 1,-10c9.33,-0.5 18.66,-0.67 28,-0.5c-0.17,-9.67 0,-19.34 0.5,-29c0.91,-2.11 2.41,-3.44 4.5,-4z" fill="#7f0000" id="svg_20" opacity="0.97"/>
  </g>
  <g id="svg_21">
   <path d="m438.5,327.5c11.33,0 22.67,0 34,0c0.17,22.67 0,45.34 -0.5,68c-8.65,39.26 -33.15,58.26 -73.5,57c0.17,6.68 0,13.34 -0.5,20c-12.68,-12.51 -25.18,-25.18 -37.5,-38c12,-12.67 24.33,-25 37,-37c1,6.63 1.33,13.3 1,20c22.34,2.6 35.5,-7.07 39.5,-29c0.5,-20.33 0.67,-40.66 0.5,-61z" fill="#7f0000" id="svg_22" opacity="0.96"/>
  </g>
  <g id="svg_23">
   <path d="m11.5,456.5c100,-0.17 200,0 300,0.5c2.37,1.74 3.7,4.08 4,7c-3.24,11.38 -7.07,22.54 -11.5,33.5c-2.37,3.37 -5.53,5.54 -9.5,6.5c-89,0.67 -178,0.67 -267,0c-3.57,-0.7 -6.4,-2.53 -8.5,-5.5c-4.24,-11.38 -8.07,-22.88 -11.5,-34.5c-0.07,-3.37 1.26,-5.87 4,-7.5zm139,18c7.01,-0.17 14.01,0 21,0.5c3.6,1.33 4.77,3.83 3.5,7.5c-0.5,1.83 -1.67,3 -3.5,3.5c-6.67,0.67 -13.33,0.67 -20,0c-6.31,-3.4 -6.65,-7.23 -1,-11.5z" fill="#7f0000" id="svg_24" opacity="0.96"/>
  </g>
 </g>
</svg>