<?xml version="1.0"?>
<svg width="512" height="512" xmlns="http://www.w3.org/2000/svg" xmlns:svg="http://www.w3.org/2000/svg" clip-rule="evenodd" fill-rule="evenodd" version="1.1">
 <g class="layer">
  <title>Layer 1</title>
  <g id="svg_1">
   <path d="m147.5,-0.5c87,0 174,0 261,0c7.48,5.12 11.48,12.28 12,21.5c-1.05,17.48 -1.88,34.98 -2.5,52.5c-0.51,11.21 -6.01,18.71 -16.5,22.5c-14.28,1.41 -28.62,1.91 -43,1.5c0,5.33 0,10.67 0,16c15.39,-0.44 30.73,0.06 46,1.5c10.41,4.31 15.74,12.14 16,23.5c-1.09,17.65 -1.92,35.31 -2.5,53c-1.25,12.58 -8.08,20.08 -20.5,22.5c-13,0.5 -26,0.67 -39,0.5c0,5.33 0,10.67 0,16c15.38,-0.42 30.72,0.08 46,1.5c10.58,5.11 16.25,13.61 17,25.5c9.17,-8.32 19.84,-13.82 32,-16.5c18.35,-2.6 29.85,4.9 34.5,22.5c0.54,6.44 -0.13,12.77 -2,19c-17.85,44.83 -44.68,83.33 -80.5,115.5c-27.35,23.5 -59.01,37.5 -95,42c-9.67,0.67 -19.33,0.67 -29,0c-16.24,-2.71 -32.58,-4.54 -49,-5.5c-8.65,-0.5 -16.98,0.83 -25,4c-0.33,0.5 -0.67,1 -1,1.5c6.8,12.27 6.63,24.43 -0.5,36.5c-11.09,13.26 -23.59,24.92 -37.5,35c-10,0 -20,0 -30,0c-3.6,-2.42 -7.1,-5.09 -10.5,-8c-33.33,-34.67 -66.67,-69.33 -100,-104c-7.55,-10.87 -7.21,-21.53 1,-32c8.45,-12.79 19.61,-22.29 33.5,-28.5c12.54,-3.96 24.71,-3.12 36.5,2.5c8.19,-13.34 19.36,-23.34 33.5,-30c0.69,-0.52 1.19,-1.19 1.5,-2c0.67,-18.67 1.33,-37.33 2,-56c0.88,-10.27 6.05,-17.43 15.5,-21.5c8.61,-1.34 17.27,-1.84 26,-1.5c0,-5.33 0,-10.67 0,-16c-7.67,0.17 -15.34,0 -23,-0.5c-13.24,-2.74 -20.24,-10.91 -21,-24.5c1.06,-17.99 1.89,-35.99 2.5,-54c0.99,-9.99 6.16,-16.83 15.5,-20.5c8.6,-1.38 17.26,-1.88 26,-1.5c0,-5.33 0,-10.67 0,-16c-10.15,0.59 -20.15,-0.25 -30,-2.5c-8.92,-4.77 -13.59,-12.27 -14,-22.5c1.06,-17.99 1.89,-35.99 2.5,-54c0.8,-8.28 4.63,-14.61 11.5,-19zm8,9c81.67,-0.17 163.33,0 245,0.5c3.58,1.92 6.08,4.75 7.5,8.5c0,19.68 -0.67,39.34 -2,59c-1.5,4.17 -4.33,7 -8.5,8.5c-81,0.67 -162,0.67 -243,0c-7.49,-3.64 -10.49,-9.64 -9,-18c0.65,-16.51 1.48,-33.01 2.5,-49.5c1.61,-3.78 4.11,-6.78 7.5,-9zm144,25c10.12,3.23 13.62,9.9 10.5,20c-6.7,7.53 -13.7,7.87 -21,1c-5.04,-11.25 -1.54,-18.25 10.5,-21zm-78,64c30.67,0 61.33,0 92,0c0,5.33 0,10.67 0,16c-30.67,0 -61.33,0 -92,0c0,-5.33 0,-10.67 0,-16zm-66,28c81.67,-0.17 163.33,0 245,0.5c3.58,1.92 6.08,4.75 7.5,8.5c0.03,19.68 -0.64,39.35 -2,59c-1.5,4.17 -4.33,7 -8.5,8.5c-81,0.67 -162,0.67 -243,0c-7.72,-3.44 -10.72,-9.44 -9,-18c0.65,-16.51 1.48,-33.01 2.5,-49.5c1.64,-3.8 4.14,-6.8 7.5,-9zm140,26c12.96,0.13 17.79,6.46 14.5,19c-4.73,5.9 -10.56,7.4 -17.5,4.5c-8.78,-9.23 -7.78,-17.06 3,-23.5zm-74,63c30.67,0 61.33,0 92,0c0,5.33 0,10.67 0,16c-30.67,0 -61.33,0 -92,0c0,-5.33 0,-10.67 0,-16zm-65,28c81,-0.17 162,0 243,0.5c4.14,1.47 6.97,4.31 8.5,8.5c0.67,5.33 0.67,10.67 0,16c-7.74,7.12 -15.57,14.12 -23.5,21c1.39,-10.64 -1.94,-19.8 -10,-27.5c-15,-7.71 -27.17,-4.54 -36.5,9.5c-5.08,15.1 -0.58,26.26 13.5,33.5c5.31,1.59 10.64,1.93 16,1c-2.62,2.74 -5.12,5.57 -7.5,8.5c-11.55,-11.96 -25.71,-17.46 -42.5,-16.5c8.55,-12.39 7.55,-24.06 -3,-35c-14.1,-8.6 -26.27,-6.43 -36.5,6.5c-4.98,9.33 -4.48,18.33 1.5,27c-31.34,0.65 -62.68,1.48 -94,2.5c-13.62,1.1 -26.95,3.6 -40,7.5c0.71,-18 1.54,-36 2.5,-54c1.71,-4.21 4.55,-7.21 8.5,-9zm296,10c17.49,-2.68 25.32,4.66 23.5,22c-17.68,47.33 -45.84,87.16 -84.5,119.5c-27.79,21.88 -59.46,33.72 -95,35.5c-21.5,-2.39 -43,-4.72 -64.5,-7c-11.69,-0.12 -22.86,2.22 -33.5,7c-29.69,-27.36 -59.36,-54.69 -89,-82c11.25,-16.47 26.58,-27.3 46,-32.5c21.03,-4.98 42.36,-7.31 64,-7c34.68,-0.75 69.34,-0.42 104,1c10.57,-0.04 19.41,3.8 26.5,11.5c5.09,10.14 3.26,18.98 -5.5,26.5c-6.86,4.92 -14.52,7.92 -23,9c-21.96,2.52 -43.96,3.02 -66,1.5c-6.28,0.89 -8.11,4.22 -5.5,10c0.75,0.63 1.58,1.13 2.5,1.5c22.36,1.8 44.69,1.47 67,-1c20.08,-0.77 34.58,-9.94 43.5,-27.5c1.16,-4.92 1.83,-9.92 2,-15c20.76,-23.26 43.6,-44.1 68.5,-62.5c6.11,-4.05 12.44,-7.55 19,-10.5zm-157,16c11.55,-0.25 16.72,5.41 15.5,17c-3.52,6.74 -9.02,9.24 -16.5,7.5c-6.74,-3.52 -9.24,-9.02 -7.5,-16.5c2.07,-3.58 4.91,-6.24 8.5,-8zm-142,181c10.09,-0.74 16.42,3.76 19,13.5c-3.89,13.18 -11.72,16.35 -23.5,9.5c-5.73,-9.2 -4.23,-16.86 4.5,-23z" fill="#7f0000" id="svg_2" opacity="0.93"/>
  </g>
  <g id="svg_3">
   <path d="m294.5,22.5c21.7,0.53 30.87,11.53 27.5,33c-4.53,9.77 -12.2,15.1 -23,16c-14.84,-1.51 -23.01,-9.68 -24.5,-24.5c1.05,-12.87 7.72,-21.04 20,-24.5zm5,11c-12.04,2.75 -15.54,9.75 -10.5,21c7.3,6.87 14.3,6.53 21,-1c3.12,-10.1 -0.38,-16.77 -10.5,-20z" fill="#7f0000" id="svg_4" opacity="0.89"/>
  </g>
  <g id="svg_5">
   <path d="m355.5,22.5c17.35,-0.65 27.02,7.68 29,25c-1.67,14.5 -9.84,22.5 -24.5,24c-14.81,-1.47 -22.97,-9.64 -24.5,-24.5c1.06,-12.88 7.73,-21.05 20,-24.5z" fill="#7f0000" id="svg_6" opacity="0.95"/>
  </g>
  <g id="svg_7">
   <path d="m173.5,42.5c28.67,-0.17 57.34,0 86,0.5c4,3.33 4,6.67 0,10c-28.67,0.67 -57.33,0.67 -86,0c-3.9,-3.49 -3.9,-6.99 0,-10.5z" fill="#7f0000" id="svg_8" opacity="0.94"/>
  </g>
  <g id="svg_9">
   <path d="m106.5,127.5c3.19,-0.48 6.02,0.19 8.5,2c1.09,18.66 1.42,37.32 1,56c-1.69,3.71 -4.53,4.88 -8.5,3.5c-1.2,-0.9 -2.03,-2.07 -2.5,-3.5c-0.67,-18.67 -0.67,-37.33 0,-56c0.72,-0.54 1.22,-1.21 1.5,-2z" fill="#7f0000" id="svg_10" opacity="0.9"/>
  </g>
  <g id="svg_11">
   <path d="m294.5,139.5c17.57,-0.6 27.24,7.9 29,25.5c-2.01,14.51 -10.34,22.34 -25,23.5c-14.57,-1.73 -22.57,-9.9 -24,-24.5c1.04,-12.87 7.71,-21.03 20,-24.5zm1,12c-10.78,6.44 -11.78,14.27 -3,23.5c6.94,2.9 12.77,1.4 17.5,-4.5c3.29,-12.54 -1.54,-18.87 -14.5,-19z" fill="#7f0000" id="svg_12" opacity="0.89"/>
  </g>
  <g id="svg_13">
   <path d="m355.5,139.5c19.9,0.07 29.4,10.07 28.5,30c-4.46,13.82 -13.96,19.99 -28.5,18.5c-18.03,-6.41 -23.53,-18.58 -16.5,-36.5c4.28,-5.79 9.78,-9.79 16.5,-12z" fill="#7f0000" id="svg_14" opacity="0.95"/>
  </g>
  <g id="svg_15">
   <path d="m173.5,159.5c28.67,-0.17 57.34,0 86,0.5c4,3.33 4,6.67 0,10c-28.67,0.67 -57.33,0.67 -86,0c-3.9,-3.49 -3.9,-6.99 0,-10.5z" fill="#7f0000" id="svg_16" opacity="0.95"/>
  </g>
  <g id="svg_17">
   <path d="m108.5,205.5c3.59,0.04 6.09,1.71 7.5,5c0.67,3.67 0.67,7.33 0,11c-5.62,4.36 -9.29,3.03 -11,-4c-0.67,-3 -0.67,-6 0,-9c1.14,-1.14 2.31,-2.14 3.5,-3z" fill="#7f0000" id="svg_18" opacity="0.84"/>
  </g>
  <g id="svg_19">
   <path d="m173.5,276.5c28.67,-0.17 57.34,0 86,0.5c4,3.33 4,6.67 0,10c-28.67,0.67 -57.33,0.67 -86,0c-3.9,-3.49 -3.9,-6.99 0,-10.5z" fill="#7f0000" id="svg_20" opacity="0.94"/>
  </g>
  <g id="svg_21">
   <path d="m421.5,404.5c9.36,2.29 10.36,6.79 3,13.5c-7.26,2.75 -10.42,0.25 -9.5,-7.5c2.06,-2.23 4.23,-4.23 6.5,-6z" fill="#7f0000" id="svg_22" opacity="0.83"/>
  </g>
  <g id="svg_23">
   <path d="m395.5,423.5c8.34,-0.63 10.68,2.71 7,10c-32.95,24.7 -69.95,36.87 -111,36.5c-3.81,-3.72 -3.48,-7.06 1,-10c38.32,-1.52 72.65,-13.69 103,-36.5z" fill="#7f0000" id="svg_24" opacity="0.89"/>
  </g>
 </g>
</svg>