<?xml version="1.0"?>
<svg width="512" height="512" xmlns="http://www.w3.org/2000/svg" xmlns:svg="http://www.w3.org/2000/svg" clip-rule="evenodd" fill-rule="evenodd" version="1.1">
 <g class="layer">
  <title>Layer 1</title>
  <g id="svg_1">
   <path d="m159.5,-0.5c49.33,0 98.67,0 148,0c10.13,3.29 17.3,9.96 21.5,20c1.56,9.61 1.89,19.27 1,29c-1.41,5.07 -4.57,8.57 -9.5,10.5c-49.33,0.67 -98.67,0.67 -148,0c-16.96,-5.89 -24.63,-17.89 -23,-36c-2.15,-10.43 1.18,-18.27 10,-23.5z" fill="#7f0000" id="svg_2" opacity="0.99"/>
  </g>
  <g id="svg_3">
   <path d="m179.5,89.5c50.33,0 100.67,0 151,0c0.17,18.67 0,37.34 -0.5,56c-3.78,28.25 -18.61,47.91 -44.5,59c1.56,22.25 -8.6,34.59 -30.5,37c-14.06,-0.21 -23.73,-6.87 -29,-20c-0.96,-5.64 -1.79,-11.31 -2.5,-17c-25.18,-11.65 -39.68,-31.31 -43.5,-59c-0.5,-18.66 -0.67,-37.33 -0.5,-56z" fill="#7f0000" id="svg_4" opacity="0.99"/>
  </g>
  <g id="svg_5">
   <path d="m152.5,211.5c14.33,0 28.67,0 43,0c3.41,35.91 23.08,55.74 59,59.5c-54.33,0.5 -108.67,0.67 -163,0.5c7.8,-32.8 28.14,-52.8 61,-60z" fill="#7f0000" id="svg_6" opacity="0.98"/>
  </g>
  <g id="svg_7">
   <path d="m314.5,211.5c14.34,-0.17 28.67,0 43,0.5c33.04,6.88 53.38,26.71 61,59.5c-54.33,0.17 -108.67,0 -163,-0.5c35.92,-3.76 55.59,-23.59 59,-59.5z" fill="#7f0000" id="svg_8" opacity="0.98"/>
  </g>
  <g id="svg_9">
   <path d="m471.5,511.5c-144,0 -288,0 -432,0c-9.8,-5.58 -12.3,-13.58 -7.5,-24c1.94,-2.61 4.44,-4.44 7.5,-5.5c6.66,-0.5 13.33,-0.67 20,-0.5c-0.17,-56 0,-112 0.5,-168c1,-5.66 4.16,-9.49 9.5,-11.5c123.67,-0.67 247.33,-0.67 371,0c5.34,2.01 8.5,5.84 9.5,11.5c0.5,56 0.67,112 0.5,168c7.01,-0.17 14.01,0 21,0.5c9.9,5.37 12.4,13.2 7.5,23.5c-2.11,2.62 -4.61,4.62 -7.5,6zm-207,-179c12.99,-1.5 19.49,4.17 19.5,17c-9.86,41.12 -20.2,82.12 -31,123c-3.84,6.95 -9.68,9.45 -17.5,7.5c-7.75,-3.33 -10.91,-9.16 -9.5,-17.5c10.04,-41.52 20.71,-82.85 32,-124c2.06,-2.23 4.23,-4.23 6.5,-6zm-74,30c15.71,-0.14 21.21,7.2 16.5,22c-7.35,7.18 -14.51,14.51 -21.5,22c6.99,7.49 14.15,14.82 21.5,22c4.89,12.23 0.89,19.56 -12,22c-3.13,0.17 -5.96,-0.66 -8.5,-2.5c-11.17,-11.17 -22.33,-22.33 -33.5,-33.5c-3.33,-5.33 -3.33,-10.67 0,-16c12.09,-12.6 24.59,-24.6 37.5,-36zm120,0c4.62,-0.51 8.95,0.33 13,2.5c11.17,11.17 22.33,22.33 33.5,33.5c3.33,5.33 3.33,10.67 0,16c-11.17,11.17 -22.33,22.33 -33.5,33.5c-12.23,5.22 -19.9,1.38 -23,-11.5c0.33,-2.82 1.16,-5.49 2.5,-8c7.35,-7.18 14.51,-14.51 21.5,-22c-6.99,-7.49 -14.15,-14.82 -21.5,-22c-4.37,-9.73 -1.87,-17.06 7.5,-22z" fill="#7f0000" id="svg_10" opacity="0.99"/>
  </g>
 </g>
</svg>