<?xml version="1.0"?>
<svg width="512" height="512" xmlns="http://www.w3.org/2000/svg" xmlns:svg="http://www.w3.org/2000/svg" clip-rule="evenodd" fill-rule="evenodd" version="1.1">
 <g class="layer">
  <title>Layer 1</title>
  <g id="svg_1">
   <path d="m511.5,89.5c0,31.33 0,62.67 0,94c-3.14,50.77 -23.8,92.94 -62,126.5c-18.63,15.62 -38.63,29.29 -60,41c-4,0.67 -8,0.67 -12,0c-29.63,-15.95 -56.13,-36.11 -79.5,-60.5c-25.88,-30.8 -39.88,-66.47 -42,-107c-0.67,-31.33 -0.67,-62.67 0,-94c0.88,-2.6 2.38,-4.77 4.5,-6.5c38.8,-17.38 77.8,-34.38 117,-51c4,-0.67 8,-0.67 12,0c39.2,16.62 78.2,33.62 117,51c2.05,1.97 3.72,4.13 5,6.5zm-85,39c17.26,-0.24 23.1,7.76 17.5,24c-22.5,27.83 -45,55.67 -67.5,83.5c-6,3.33 -12,3.33 -18,0c-12.2,-16.91 -24.04,-34.07 -35.5,-51.5c-5.61,-16.38 0.22,-24.22 17.5,-23.5c1.33,0.67 2.67,1.33 4,2c8.13,11.12 16.13,22.28 24,33.5c16.97,-19.93 33.47,-40.26 49.5,-61c2.44,-2.95 5.27,-5.29 8.5,-7z" fill="#7f0000" id="svg_2" opacity="0.99"/>
  </g>
  <g id="svg_3" transform="matrix(1 0 0 1 0 0)">
   <path d="m-0.5,223.5c0,-24 0,-48 0,-72c2.86,-8.7 8.2,-15.54 16,-20.5c2.59,-1.2 5.26,-2.2 8,-3c66.67,-0.5 133.33,-0.67 200,-0.5c-0.77,32.25 1.56,64.25 7,96c-77,0 -154,0 -231,0z" fill="#7f0000" id="svg_4" opacity="1"/>
  </g>
  <g id="svg_5" transform="matrix(1 0 0 1 0 0)">
   <path d="m-0.5,287.5c86.34,-0.33 172.67,0 259,1c15.79,22.29 34.46,41.79 56,58.5c14.32,10.16 28.99,19.83 44,29c14.21,7.42 28.88,8.42 44,3c36.53,-19.19 68.37,-44.36 95.5,-75.5c3.25,-4.16 6.25,-8.49 9,-13c1.13,-1.64 2.63,-2.64 4.5,-3c0,56 0,112 0,168c-2.86,8.7 -8.2,15.54 -16,20.5c-2.59,1.2 -5.26,2.2 -8,3c-154.67,0.67 -309.33,0.67 -464,0c-5.71,-1.39 -10.71,-4.06 -15,-8c-4.13,-4.6 -7.13,-9.77 -9,-15.5c0,-56 0,-112 0,-168zm80,64c23.04,-0.45 46.04,0.05 69,1.5c8.37,3.91 11.54,10.41 9.5,19.5c-2.6,6.55 -7.43,10.05 -14.5,10.5c-23.04,0.95 -46.04,0.61 -69,-1c-8.37,-3.91 -11.54,-10.41 -9.5,-19.5c2.82,-6.48 7.65,-10.14 14.5,-11z" fill="#7f0000" id="svg_6" opacity="1"/>
  </g>
 </g>
</svg>