<?xml version="1.0"?>
<svg width="512" height="512" xmlns="http://www.w3.org/2000/svg" xmlns:svg="http://www.w3.org/2000/svg" clip-rule="evenodd" fill-rule="evenodd" version="1.1">
 <g class="layer">
  <title>Layer 1</title>
  <g id="svg_1">
   <path d="m8.5,-0.5c164.67,0 329.33,0 494,0c1.49,1.3 3.15,2.47 5,3.5c1.2,2.02 2.53,3.85 4,5.5c0,124 0,248 0,372c-1.81,3.98 -4.81,6.81 -9,8.5c-24.67,0.67 -49.33,0.67 -74,0c23.05,-28.1 28.21,-59.27 15.5,-93.5c-16.62,-34.95 -44.29,-53.61 -83,-56c-37.99,2.02 -65.33,20.02 -82,54c-14.16,34.83 -9.33,66.66 14.5,95.5c-95,0.67 -190,0.67 -285,0c-4.19,-1.69 -7.19,-4.52 -9,-8.5c0,-124 0,-248 0,-372c1.3,-1.49 2.47,-3.15 3.5,-5c2.02,-1.2 3.85,-2.53 5.5,-4zm97,60c20,-0.17 40,0 60,0.5c8.75,0.92 13.75,5.75 15,14.5c-0.8,6.45 -4.13,10.95 -10,13.5c-16.62,1.42 -33.28,1.92 -50,1.5c0,10 0,20 0,30c15,-0.17 30,0 45,0.5c8.37,0.7 13.21,5.2 14.5,13.5c0.96,22.05 0.62,44.05 -1,66c-2.46,5.99 -6.96,9.15 -13.5,9.5c-20,0.67 -40,0.67 -60,0c-13.29,-3.07 -17.12,-10.91 -11.5,-23.5c2.08,-1.62 4.25,-3.12 6.5,-4.5c16.95,-1.43 33.95,-1.93 51,-1.5c0,-10 0,-20 0,-30c-15.34,0.17 -30.67,0 -46,-0.5c-5.45,-0.46 -9.61,-2.96 -12.5,-7.5c-1.65,-23.91 -1.98,-47.91 -1,-72c2.98,-5.5 7.48,-8.83 13.5,-10zm120,0c20,-0.17 40,0 60,0.5c8.75,0.92 13.75,5.75 15,14.5c-0.8,6.45 -4.13,10.95 -10,13.5c-16.62,1.42 -33.29,1.92 -50,1.5c0,10 0,20 0,30c15,-0.17 30,0 45,0.5c8.37,0.7 13.2,5.2 14.5,13.5c0.96,22.05 0.62,44.05 -1,66c-2.46,5.99 -6.96,9.15 -13.5,9.5c-20,0.67 -40,0.67 -60,0c-13.29,-3.07 -17.12,-10.91 -11.5,-23.5c2.08,-1.62 4.25,-3.12 6.5,-4.5c16.95,-1.43 33.95,-1.93 51,-1.5c0,-10 0,-20 0,-30c-15.34,0.17 -30.67,0 -46,-0.5c-5.45,-0.46 -9.61,-2.96 -12.5,-7.5c-1.65,-23.91 -1.98,-47.91 -1,-72c2.98,-5.5 7.48,-8.83 13.5,-10zm115,1c10.69,-1.75 17.19,2.58 19.5,13c0.5,35.33 0.67,70.66 0.5,106c10.33,0 20.67,0 31,0c-0.17,-6.68 0,-13.34 0.5,-20c3.78,-7.81 9.95,-10.64 18.5,-8.5c5.69,2.21 8.86,6.37 9.5,12.5c0.67,10.67 0.67,21.33 0,32c-0.64,6.13 -3.81,10.29 -9.5,12.5c-21.62,1.61 -43.29,1.94 -65,1c-6.19,-0.84 -10.69,-4 -13.5,-9.5c-0.67,-43.33 -0.67,-86.67 0,-130c1.69,-4.19 4.52,-7.19 8.5,-9zm-235,179c40,-0.17 80,0 120,0.5c10.79,2.07 15.29,8.57 13.5,19.5c-2.81,5.5 -7.31,8.66 -13.5,9.5c-40,0.67 -80,0.67 -120,0c-13.29,-3.07 -17.12,-10.91 -11.5,-23.5c3.31,-3.24 7.14,-5.24 11.5,-6zm0,60c40,-0.17 80,0 120,0.5c10.79,2.07 15.29,8.57 13.5,19.5c-2.81,5.5 -7.31,8.66 -13.5,9.5c-40,0.67 -80,0.67 -120,0c-13.29,-3.07 -17.12,-10.91 -11.5,-23.5c3.31,-3.24 7.14,-5.24 11.5,-6z" fill="#7f0000" id="svg_2" opacity="0.99"/>
  </g>
  <g id="svg_3">
   <path d="m349.5,269.5c31.9,-3.31 54.73,9.36 68.5,38c9.59,30.85 1.42,55.68 -24.5,74.5c-29.62,14.95 -56.12,10.79 -79.5,-12.5c-14.5,-19.64 -17.5,-40.97 -9,-64c9.23,-19.02 24.07,-31.02 44.5,-36z" fill="#7f0000" id="svg_4" opacity="0.98"/>
  </g>
  <g id="svg_5">
   <path d="m411.5,511.5c-4,0 -8,0 -12,0c-12.76,-8.89 -25.76,-17.56 -39,-26c-13.04,8.73 -26.04,17.39 -39,26c-4,0 -8,0 -12,0c-3.98,-1.81 -6.81,-4.81 -8.5,-9c-0.67,-35.33 -0.67,-70.67 0,-106c26.3,22.64 56.13,28.8 89.5,18.5c11.04,-3.93 20.87,-9.76 29.5,-17.5c0.67,35 0.67,70 0,105c-1.69,4.19 -4.52,7.19 -8.5,9z" fill="#7f0000" id="svg_6" opacity="0.98"/>
  </g>
 </g>
</svg>